<mxfile host="app.diagrams.net" agent="Mozilla/5.0 (Windows NT 10.0; Win64; x64) AppleWebKit/537.36 (KHTML, like Gecko) Chrome/131.0.0.0 Safari/537.36" version="24.8.9">
  <diagram name="Página-1" id="IPPxIWogzqDivKfns2cm">
    <mxGraphModel grid="1" page="1" gridSize="10" guides="1" tooltips="1" connect="1" arrows="1" fold="1" pageScale="1" pageWidth="827" pageHeight="1169" math="0" shadow="0">
      <root>
        <mxCell id="0" />
        <mxCell id="1" parent="0" />
        <mxCell id="cnOAkUwz8yER25GTGM9y-1" value="" style="shape=umlActor;verticalLabelPosition=bottom;verticalAlign=top;html=1;outlineConnect=0;" vertex="1" parent="1">
          <mxGeometry x="640" y="130" width="40" height="80" as="geometry" />
        </mxCell>
        <mxCell id="cnOAkUwz8yER25GTGM9y-8" value="" style="rounded=1;whiteSpace=wrap;html=1;rotation=0;labelBackgroundColor=#FFE2C4;labelBorderColor=#FFE0B8;textShadow=0;noLabel=1;fillColor=#ffe6cc;strokeColor=#d79b00;" vertex="1" parent="1">
          <mxGeometry x="220" y="260" width="570" height="140" as="geometry" />
        </mxCell>
        <mxCell id="be5XaErGLcdSOeXT9-en-1" value="" style="rounded=1;whiteSpace=wrap;html=1;rotation=0;fillColor=#dae8fc;strokeColor=#6c8ebf;" vertex="1" parent="1">
          <mxGeometry x="220" y="410" width="570" height="140" as="geometry" />
        </mxCell>
        <mxCell id="be5XaErGLcdSOeXT9-en-2" value="&lt;span style=&quot;color: rgba(0, 0, 0, 0); font-family: monospace; font-size: 0px; text-align: start; text-wrap-mode: nowrap;&quot;&gt;%3CmxGraphModel%3E%3Croot%3E%3CmxCell%20id%3D%220%22%2F%3E%3CmxCell%20id%3D%221%22%20parent%3D%220%22%2F%3E%3CmxCell%20id%3D%222%22%20value%3D%22%22%20style%3D%22rounded%3D1%3BwhiteSpace%3Dwrap%3Bhtml%3D1%3Brotation%3D0%3BfillColor%3D%23f8cecc%3BstrokeColor%3D%23b85450%3B%22%20vertex%3D%221%22%20parent%3D%221%22%3E%3CmxGeometry%20x%3D%22220%22%20y%3D%22560%22%20width%3D%22570%22%20height%3D%22140%22%20as%3D%22geometry%22%2F%3E%3C%2FmxCell%3E%3C%2Froot%3E%3C%2FmxGraphModel%3E&lt;/span&gt;" style="rounded=1;whiteSpace=wrap;html=1;rotation=0;fillColor=#f8cecc;strokeColor=#b85450;" vertex="1" parent="1">
          <mxGeometry x="220" y="560" width="570" height="140" as="geometry" />
        </mxCell>
        <mxCell id="be5XaErGLcdSOeXT9-en-4" value="Capa de negocio" style="text;html=1;align=center;verticalAlign=middle;whiteSpace=wrap;rounded=0;fontSize=20;" vertex="1" parent="1">
          <mxGeometry x="220" y="410" width="200" height="30" as="geometry" />
        </mxCell>
        <mxCell id="be5XaErGLcdSOeXT9-en-6" value="Capa de presentación" style="text;html=1;align=center;verticalAlign=middle;whiteSpace=wrap;rounded=0;fontSize=20;" vertex="1" parent="1">
          <mxGeometry x="240" y="260" width="200" height="30" as="geometry" />
        </mxCell>
        <mxCell id="be5XaErGLcdSOeXT9-en-7" value="Capa de persistencia" style="text;html=1;align=center;verticalAlign=middle;whiteSpace=wrap;rounded=0;fontSize=20;" vertex="1" parent="1">
          <mxGeometry x="230" y="560" width="220" height="30" as="geometry" />
        </mxCell>
        <mxCell id="be5XaErGLcdSOeXT9-en-8" value="&lt;font style=&quot;font-size: 18px;&quot;&gt;Interfaz de usuario&lt;/font&gt;" style="rounded=0;whiteSpace=wrap;html=1;" vertex="1" parent="1">
          <mxGeometry x="565" y="290" width="190" height="70" as="geometry" />
        </mxCell>
        <mxCell id="be5XaErGLcdSOeXT9-en-12" value="" style="rounded=1;whiteSpace=wrap;html=1;rotation=0;fillColor=#d5e8d4;strokeColor=#82b366;" vertex="1" parent="1">
          <mxGeometry x="220" y="710" width="570" height="140" as="geometry" />
        </mxCell>
        <mxCell id="be5XaErGLcdSOeXT9-en-13" value="Capa de datos" style="text;html=1;align=center;verticalAlign=middle;whiteSpace=wrap;rounded=0;fontSize=20;" vertex="1" parent="1">
          <mxGeometry x="214" y="720" width="200" height="30" as="geometry" />
        </mxCell>
        <mxCell id="be5XaErGLcdSOeXT9-en-17" value="Usuario" style="text;html=1;align=center;verticalAlign=middle;whiteSpace=wrap;rounded=0;fontSize=20;" vertex="1" parent="1">
          <mxGeometry x="630" y="90" width="60" height="30" as="geometry" />
        </mxCell>
        <mxCell id="be5XaErGLcdSOeXT9-en-18" style="edgeStyle=orthogonalEdgeStyle;rounded=0;orthogonalLoop=1;jettySize=auto;html=1;entryX=0.5;entryY=0;entryDx=0;entryDy=0;verticalAlign=top;horizontal=1;" edge="1" parent="1" source="cnOAkUwz8yER25GTGM9y-1" target="be5XaErGLcdSOeXT9-en-8">
          <mxGeometry relative="1" as="geometry" />
        </mxCell>
        <mxCell id="be5XaErGLcdSOeXT9-en-20" value="Base de datos" style="shape=cylinder3;whiteSpace=wrap;html=1;boundedLbl=1;backgroundOutline=1;size=15;fontSize=16;" vertex="1" parent="1">
          <mxGeometry x="600" y="740" width="120" height="80" as="geometry" />
        </mxCell>
        <mxCell id="be5XaErGLcdSOeXT9-en-21" value="&lt;font style=&quot;font-size: 18px;&quot;&gt;Subsistema de almacenaje&lt;/font&gt;" style="rounded=1;whiteSpace=wrap;html=1;" vertex="1" parent="1">
          <mxGeometry x="600" y="450" width="150" height="80" as="geometry" />
        </mxCell>
        <mxCell id="be5XaErGLcdSOeXT9-en-22" value="&lt;font style=&quot;font-size: 18px;&quot;&gt;Subsistema de préstamo&lt;/font&gt;" style="rounded=1;whiteSpace=wrap;html=1;" vertex="1" parent="1">
          <mxGeometry x="432.5" y="450" width="145" height="80" as="geometry" />
        </mxCell>
        <mxCell id="be5XaErGLcdSOeXT9-en-23" value="&lt;font style=&quot;font-size: 18px;&quot;&gt;Subsistema de generación de informes&lt;/font&gt;" style="rounded=1;whiteSpace=wrap;html=1;" vertex="1" parent="1">
          <mxGeometry x="260" y="450" width="150" height="80" as="geometry" />
        </mxCell>
        <mxCell id="be5XaErGLcdSOeXT9-en-30" value="&lt;span style=&quot;font-size: 18px;&quot;&gt;Objeto&lt;/span&gt;&lt;span style=&quot;color: rgba(0, 0, 0, 0); font-family: monospace; font-size: 0px; text-align: start; text-wrap-mode: nowrap;&quot;&gt;%3CmxGraphModel%3E%3Croot%3E%3CmxCell%20id%3D%220%22%2F%3E%3CmxCell%20id%3D%221%22%20parent%3D%220%22%2F%3E%3CmxCell%20id%3D%222%22%20value%3D%22%26lt%3Bfont%20style%3D%26quot%3Bfont-size%3A%2018px%3B%26quot%3B%26gt%3BSubsistema%20de%20pr%C3%A9stamo%26lt%3B%2Ffont%26gt%3B%22%20style%3D%22rounded%3D1%3BwhiteSpace%3Dwrap%3Bhtml%3D1%3B%22%20vertex%3D%221%22%20parent%3D%221%22%3E%3CmxGeometry%20x%3D%22432.5%22%20y%3D%22450%22%20width%3D%22145%22%20height%3D%2280%22%20as%3D%22geometry%22%2F%3E%3C%2FmxCell%3E%3C%2Froot%3E%3C%2FmxGraphModel%3E&lt;/span&gt;" style="rounded=1;whiteSpace=wrap;html=1;" vertex="1" parent="1">
          <mxGeometry x="602.5" y="600" width="145" height="80" as="geometry" />
        </mxCell>
        <mxCell id="be5XaErGLcdSOeXT9-en-31" value="&lt;font style=&quot;font-size: 18px;&quot;&gt;Almacén&lt;/font&gt;" style="rounded=1;whiteSpace=wrap;html=1;" vertex="1" parent="1">
          <mxGeometry x="432.5" y="600" width="145" height="80" as="geometry" />
        </mxCell>
        <mxCell id="be5XaErGLcdSOeXT9-en-32" value="&lt;font style=&quot;font-size: 18px;&quot;&gt;Usuario&lt;/font&gt;" style="rounded=1;whiteSpace=wrap;html=1;" vertex="1" parent="1">
          <mxGeometry x="262.5" y="600" width="145" height="80" as="geometry" />
        </mxCell>
      </root>
    </mxGraphModel>
  </diagram>
</mxfile>
